<svg xmlns="http://www.w3.org/2000/svg" width="14.883" height="14.899" viewBox="0 0 14.883 14.899"><defs><style>.a{fill:#518bff;}</style></defs><g transform="translate(-288.6 -21390.55)"><path class="a" d="M65,40.96a3.555,3.555,0,1,0,0,7.111h3.555V44.515A3.571,3.571,0,0,0,65,40.96Zm11.327,3.555a3.555,3.555,0,0,0-7.111,0v3.555h3.555A3.571,3.571,0,0,0,76.323,44.515ZM61.44,52.287a3.555,3.555,0,1,0,7.111,0V48.749H65A3.546,3.546,0,0,0,61.44,52.287Zm11.328-3.539H69.229V52.3a3.547,3.547,0,1,0,3.539-3.555Z" transform="translate(227.16 21349.59)"/></g></svg>