<svg xmlns="http://www.w3.org/2000/svg" width="14" height="14" viewBox="0 0 14 14"><g transform="translate(-261 -91)"><rect width="14" height="14" transform="translate(261 91)" fill="none"/><path d="M7.178,78.372H5.042V76.811a.308.308,0,0,0-.45-.273l-4.427,2.3a.307.307,0,0,0,0,.546l4.428,2.3a.308.308,0,0,0,.45-.273V79.84H7.379c2.335,0,3.536.934,3.536,2.8,0,1.935-1.2,2.868-3.669,2.868H1.287a.314.314,0,0,0-.314.314v.847a.308.308,0,0,0,.308.308H7.31q5,0,5-4.2C12.314,79.84,10.58,78.372,7.178,78.372Zm0,0" transform="translate(261.843 16.259)" fill="#ff8a21"/></g></svg>