<svg xmlns="http://www.w3.org/2000/svg" width="14.001" height="14"><path data-name="路径 10931" d="M12.904 7.446c0 .033.019.061.019.093v5.384A1.077 1.077 0 0111.849 14h-9.7a1.077 1.077 0 01-1.077-1.077V7.539c0-.033.016-.061.019-.093a1.612 1.612 0 01.436-3.137h3.322V1.616A1.617 1.617 0 016.461 0h1.077a1.617 1.617 0 011.616 1.616v2.691h3.313a1.612 1.612 0 01.438 3.138zM2.149 12.929h2.154v-2.16a.539.539 0 011.077 0v2.154h1.077v-2.154a.539.539 0 011.077 0v2.154h1.078v-2.154a.539.539 0 011.077 0v2.154h2.16V7.539h-9.7v5.39zM12.462 5.39h-3.85a.525.525 0 01-.51-.467h-.03V1.616a.538.538 0 00-.539-.539H6.456a.538.538 0 00-.538.539v3.23a.539.539 0 01-.539.539h-3.85a.546.546 0 000 1.077h10.94a.546.546 0 000-1.078z" fill="#636666"/></svg>
