<svg xmlns="http://www.w3.org/2000/svg" width="11" height="11"><g data-name="组 35252"><path data-name="矩形 19500" fill="#fff" d="M3.445 2.306h6.484V7.98H3.445z"/><g data-name="组 33994"><path data-name="矩形 19285" fill="none" d="M0 0h11v11H0z"/><path data-name="路径 22193" d="M5.846 10.544a.6.6 0 01-.189-.029c-.183-.064-4.546-1.58-4.546-5.782V2.525a.58.58 0 01.343-.529L5.597.136a.6.6 0 01.491 0l4.144 1.86a.582.582 0 01.343.529v2.208c0 4.219-4.363 5.718-4.546 5.782a.6.6 0 01-.183.029zm-.383-3.219a.6.6 0 00.414-.177l2.4-2.438a.485.485 0 000-.657.506.506 0 00-.658 0L5.463 6.235l-.9-.893a.585.585 0 00-.722-.1.491.491 0 000 .687l1.2 1.219a.593.593 0 00.422.178z" fill="#4cd8ad"/></g></g></svg>