<svg xmlns="http://www.w3.org/2000/svg" width="12" height="12" viewBox="0 0 12 12"><defs><style>.a,.b{fill:#3e4040;}.a{opacity:0;}</style></defs><g transform="translate(-108 -116.813)"><rect class="a" width="12" height="12" transform="translate(108 116.813)"/><path class="b" d="M59.525,45.525a.5.5,0,1,1,0,.991H51.163a.5.5,0,0,1-.5-.5V43.6a.5.5,0,0,1,.151-.356l6.495-6.277a1.321,1.321,0,0,1,1.868,0l.694.694a1.321,1.321,0,0,1,0,1.869l-5.348,5.308a.5.5,0,1,1-.7-.7l5.347-5.306a.33.33,0,0,0,0-.467l-.693-.693a.332.332,0,0,0-.473.006l-6.35,6.136v1.719h7.866Z" transform="translate(58.39 81.186)"/></g></svg>