<svg xmlns="http://www.w3.org/2000/svg" width="16" height="16" viewBox="0 0 16 16"><defs><style>.a{fill:none;}.b{fill:#636666;}</style></defs><g transform="translate(-207 -812.087)"><rect class="a" width="16" height="16" transform="translate(207 812.087)"/><g transform="translate(208.04 813.352)"><path class="b" d="M460.449,165.673l6.563-6.563a.58.58,0,1,1,.82.82l-6.563,6.563a.58.58,0,0,1-.82-.82Z" transform="translate(-454.279 -158.741)"/><path class="b" d="M164.315,156.194v5.8a2.32,2.32,0,0,1-2.32,2.32h-9.281a2.32,2.32,0,0,1-2.32-2.32v-9.281a2.32,2.32,0,0,1,2.32-2.32h2.32v1.16h-2.32a1.16,1.16,0,0,0-1.16,1.16v9.281a1.16,1.16,0,0,0,1.16,1.16h9.281a1.16,1.16,0,0,0,1.16-1.16v-2.32h1.16v-3.48Z" transform="translate(-150.393 -150.393)"/><path class="b" d="M518.96,151.554v5.221a.58.58,0,0,1-1.16,0v-4.641a.58.58,0,0,0-.58-.58h-4.641a.58.58,0,0,1,0-1.16h5.8a.58.58,0,0,1,.58.58Z" transform="translate(-505.038 -150.393)"/></g></g></svg>