<svg xmlns="http://www.w3.org/2000/svg" width="16" height="16" viewBox="0 0 16 16"><g transform="translate(-207 -812.087)"><rect width="16" height="16" transform="translate(207 812.087)" fill="none"/><g transform="translate(144.856 803.876)"><path d="M75,8.793H65.2A1.653,1.653,0,0,0,63.55,10.44V22.88a.743.743,0,0,0,.736.748h.245l4.7-1.892a3.476,3.476,0,0,1,.911-.164,3.087,3.087,0,0,1,.911.164l4.7,1.892h.245a.745.745,0,0,0,.748-.748V10.44A1.793,1.793,0,0,0,75,8.793Zm.491,13.433-3.96-1.565a3.883,3.883,0,0,0-1.4-.245,4.22,4.22,0,0,0-1.4.245l-3.96,1.565V10.277c0-.164.164-.409.327-.409H75.243a.374.374,0,0,1,.327.409v11.95h-.082Z" fill="#ff8a21"/><path d="M68.037,14.7l2.008,2.1L73,13.94" transform="translate(-0.177 -0.327)" fill="none" stroke="#ff8a21" stroke-linecap="round" stroke-linejoin="round" stroke-width="1"/></g></g></svg>